<svg width="96" height="96" viewBox="0 0 96 96" fill="none" xmlns="http://www.w3.org/2000/svg">
  <rect width="96" height="96" rx="22" fill="#143d1b"/>
  <circle cx="48" cy="48" r="38" fill="#fff8e8"/>
  <path d="M50 18c4-9 13-13 25-10-3 11-12 17-25 15" fill="#5b7f17" stroke="#102315" stroke-width="4" stroke-linejoin="round"/>
  <path d="M49 25c13 0 25 14 25 32 0 16-11 27-26 27S22 73 22 57c0-18 14-32 27-32Z" fill="#f4c94f" stroke="#102315" stroke-width="5"/>
  <path d="M27 42c-9 4-14 11-13 19 1 9 8 15 18 15-6-10-8-22-5-34Z" fill="#f14562" stroke="#102315" stroke-width="3"/>
  <path d="M69 42c9 4 14 11 13 19-1 9-8 15-18 15 6-10 8-22 5-34Z" fill="#f14562" stroke="#102315" stroke-width="3"/>
  <path d="M35 58c0-4 3-7 7-7s7 3 7 7" stroke="#102315" stroke-width="4" stroke-linecap="round"/>
  <path d="M55 58c0-4 3-7 7-7s7 3 7 7" stroke="#102315" stroke-width="4" stroke-linecap="round"/>
  <path d="M40 68c5 4 12 4 17 0" stroke="#102315" stroke-width="4" stroke-linecap="round"/>
  <path d="M73 25v20c0 4-4 7-8 6-4 0-6-3-5-6 0-4 4-6 9-5V25h4Z" fill="#f14562"/>
  <path d="M16 18l2 5 5 2-5 2-2 5-2-5-5-2 5-2 2-5Z" fill="#f14562"/>
  <path d="M77 69l2 5 5 2-5 2-2 5-2-5-5-2 5-2 2-5Z" fill="#f4c94f"/>
</svg>
